<svg width="25" height="25" viewBox="0 0 25 25" fill="none" xmlns="http://www.w3.org/2000/svg">
<path d="M0.78125 15.4688C0.98845 15.4688 1.18716 15.5511 1.33368 15.6976C1.48019 15.8441 1.5625 16.0428 1.5625 16.25V20.1563C1.5625 20.5707 1.72712 20.9681 2.02015 21.2611C2.31317 21.5541 2.7106 21.7188 3.125 21.7188H21.875C22.2894 21.7188 22.6868 21.5541 22.9799 21.2611C23.2729 20.9681 23.4375 20.5707 23.4375 20.1563V16.25C23.4375 16.0428 23.5198 15.8441 23.6663 15.6976C23.8128 15.5511 24.0115 15.4688 24.2188 15.4688C24.426 15.4688 24.6247 15.5511 24.7712 15.6976C24.9177 15.8441 25 16.0428 25 16.25V20.1563C25 20.9851 24.6708 21.7799 24.0847 22.366C23.4987 22.952 22.7038 23.2813 21.875 23.2813H3.125C2.2962 23.2813 1.50134 22.952 0.915291 22.366C0.32924 21.7799 0 20.9851 0 20.1563V16.25C0 16.0428 0.08231 15.8441 0.228823 15.6976C0.375336 15.5511 0.57405 15.4688 0.78125 15.4688Z" fill="black"/>
<path d="M11.9468 1.79056C12.0193 1.7178 12.1055 1.66008 12.2005 1.62069C12.2954 1.58131 12.3971 1.56104 12.4999 1.56104C12.6027 1.56104 12.7044 1.58131 12.7993 1.62069C12.8942 1.66008 12.9804 1.7178 13.053 1.79056L17.7405 6.47806C17.8872 6.62476 17.9696 6.82372 17.9696 7.03118C17.9696 7.23865 17.8872 7.43761 17.7405 7.58431C17.5938 7.73101 17.3949 7.81342 17.1874 7.81342C16.9799 7.81342 16.781 7.73101 16.6343 7.58431L13.2811 4.22962V17.9687C13.2811 18.1759 13.1988 18.3746 13.0523 18.5211C12.9058 18.6676 12.7071 18.7499 12.4999 18.7499C12.2927 18.7499 12.094 18.6676 11.9475 18.5211C11.8009 18.3746 11.7186 18.1759 11.7186 17.9687V4.22962L8.36551 7.58431C8.29288 7.65695 8.20664 7.71456 8.11174 7.75388C8.01683 7.79319 7.91511 7.81342 7.81239 7.81342C7.70966 7.81342 7.60794 7.79319 7.51304 7.75388C7.41813 7.71456 7.3319 7.65695 7.25926 7.58431C7.18663 7.51167 7.12901 7.42544 7.0897 7.33053C7.05038 7.23563 7.03015 7.13391 7.03015 7.03118C7.03015 6.92846 7.05038 6.82674 7.0897 6.73183C7.12901 6.63693 7.18663 6.55069 7.25926 6.47806L11.9468 1.79056Z" fill="black"/>
</svg>
